<?xml version="1.0" standalone="no"?><!DOCTYPE svg PUBLIC "-//W3C//DTD SVG 1.1//EN" "http://www.w3.org/Graphics/SVG/1.1/DTD/svg11.dtd"><svg t="1554967982389" class="icon" style="" viewBox="0 0 1024 1024" version="1.1" xmlns="http://www.w3.org/2000/svg" p-id="7055" xmlns:xlink="http://www.w3.org/1999/xlink" width="128" height="128"><defs><style type="text/css"></style></defs><path d="M742.09204148 632.14933333a249.18243555 249.18243555 0 0 0 30.97182815-120.69546666c0-139.67663408-114.61518222-252.90827852-256.00303408-252.90827852A256.07585185 256.07585185 0 0 0 425.5046163 275.34222222l66.00931555 65.20832a102.29684148 102.29684148 0 0 1 0 145.63555556c-40.57163852 40.04977778-106.92077037 40.04977778-147.38318222 0L278.12143408 420.97777778a250.89365333 250.89365333 0 0 0-16.99081483 90.43968c0 139.67663408 114.61518222 252.90827852 256.00303408 252.90827852a256.81616592 256.81616592 0 0 0 122.18823112-30.59560297L826.63348148 918.56592592a73.49741037 73.49741037 0 0 0 102.74588444 0 71.36142222 71.36142222 0 0 0 0-101.49584592z" fill="#8a8a8a" p-id="7056"></path><path d="M876.70784 905.14318222A34.16367408 34.16367408 0 1 1 911.28414815 870.97950815a34.38212741 34.38212741 0 0 1-34.57630815 34.16367407z" fill="#8a8a8a" p-id="7057"></path><path d="M938.54226963 445.11687111a409.80631703 409.80631703 0 0 0-22.9497363-84.5293037l78.43688297-44.77079704L927.06133333 201.15304297l-78.55824592 44.77079703a428.90884741 428.90884741 0 0 0-62.61115259-61.89511111L831.18459259 106.46565925l-116.08367407-66.10640592L669.77185185 117.84950518a428.41125925 428.41125925 0 0 0-85.56088888-22.67060148V5.7465363H450.10488889v89.55373037a422.94992592 422.94992592 0 0 0-85.56088889 22.67060148l-45.32906667-77.49025185L203.17980445 106.6477037l45.32906666 77.6722963a428.90884741 428.90884741 0 0 0-62.62328889 61.89511111l-78.55824592-44.90429629-67.02876445 114.55450073L118.784 360.70893037A415.06133333 415.06133333 0 0 0 95.79785482 445.25037037H5.27322075v132.4069926h90.64599703a409.79418075 409.79418075 0 0 0 22.9497363 84.5293037l-78.43688297 44.77079703 66.90740148 114.67586371 78.55824593-44.77079704a428.89671111 428.89671111 0 0 0 62.62328889 61.89511111l-45.32906666 77.59947852 116.08367407 66.10640592 45.32906666-77.49025184A428.41125925 428.41125925 0 0 0 450.10488889 927.58319408v89.55373037h134.09393778v-89.55373037a408.24073482 408.24073482 0 0 0 40.57163851-8.49540741l-26.78480593-86.42256592a338.44489482 338.44489482 0 0 1-80.81559703 9.70903703c-185.1392 0-335.13168592-148.28126815-335.13168592-331.06602667S332.14008889 180.26647703 517.17006222 180.26647703 852.30174815 328.54774518 852.30174815 511.3325037a328.9785837 328.9785837 0 0 1-13.34992593 92.45430519l86.47111111 29.12711111a409.84272592 409.84272592 0 0 0 12.99797334-55.26869333H1016.86992592v-132.52835556z" fill="#8a8a8a" p-id="7058"></path></svg>